<?xml version="1.0" encoding="UTF-8"?>
<svg width="36px" height="36px" viewBox="0 0 36 36" version="1.1" xmlns="http://www.w3.org/2000/svg">
    <title>Programming</title>
    <g stroke="none" stroke-width="1" fill="none" fill-rule="evenodd">
        <circle fill="#EDE9FE" cx="18" cy="18" r="18"/>
        <path d="M13.2928932,15.2928932 C12.9023689,15.6834175 12.9023689,16.3165825 13.2928932,16.7071068 L15.2928932,18.7071068 C15.6834175,19.0976311 16.3165825,19.0976311 16.7071068,18.7071068 C17.0976311,18.3165825 17.0976311,17.6834175 16.7071068,17.2928932 L15.4142136,16 L16.7071068,14.7071068 C17.0976311,14.3165825 17.0976311,13.6834175 16.7071068,13.2928932 C16.3165825,12.9023689 15.6834175,12.9023689 15.2928932,13.2928932 L13.2928932,15.2928932 Z M22.7071068,15.2928932 L20.7071068,13.2928932 C20.3165825,12.9023689 19.6834175,12.9023689 19.2928932,13.2928932 C18.9023689,13.6834175 18.9023689,14.3165825 19.2928932,14.7071068 L20.5857864,16 L19.2928932,17.2928932 C18.9023689,17.6834175 18.9023689,18.3165825 19.2928932,18.7071068 C19.6834175,19.0976311 20.3165825,19.0976311 20.7071068,18.7071068 L22.7071068,16.7071068 C23.0976311,16.3165825 23.0976311,15.6834175 22.7071068,15.2928932 Z M12,21 C11.4477153,21 11,21.4477153 11,22 C11,22.5522847 11.4477153,23 12,23 L24,23 C24.5522847,23 25,22.5522847 25,22 C25,21.4477153 24.5522847,21 24,21 L12,21 Z" fill="#7C3AED" fill-rule="nonzero"/>
    </g>
</svg> 