<?xml version="1.0" encoding="UTF-8"?>
<svg width="36px" height="36px" viewBox="0 0 36 36" version="1.1" xmlns="http://www.w3.org/2000/svg">
    <title>Web Development</title>
    <g stroke="none" stroke-width="1" fill="none" fill-rule="evenodd">
        <circle fill="#DBEAFE" cx="18" cy="18" r="18"/>
        <path d="M11,11 C10.4477153,11 10,11.4477153 10,12 L10,24 C10,24.5522847 10.4477153,25 11,25 L25,25 C25.5522847,25 26,24.5522847 26,24 L26,12 C26,11.4477153 25.5522847,11 25,11 L11,11 Z M24,13 L24,23 L12,23 L12,13 L24,13 Z M14.2928932,15.2928932 C13.9023689,15.6834175 13.9023689,16.3165825 14.2928932,16.7071068 L15.5857864,18 L14.2928932,19.2928932 C13.9023689,19.6834175 13.9023689,20.3165825 14.2928932,20.7071068 C14.6834175,21.0976311 15.3165825,21.0976311 15.7071068,20.7071068 L17.7071068,18.7071068 C18.0976311,18.3165825 18.0976311,17.6834175 17.7071068,17.2928932 L15.7071068,15.2928932 C15.3165825,14.9023689 14.6834175,14.9023689 14.2928932,15.2928932 Z M21,19 L19,19 C18.4477153,19 18,19.4477153 18,20 C18,20.5522847 18.4477153,21 19,21 L21,21 C21.5522847,21 22,20.5522847 22,20 C22,19.4477153 21.5522847,19 21,19 Z" fill="#3B82F6" fill-rule="nonzero"/>
    </g>
</svg> 